<?xml version="1.0" standalone="no"?>
<!DOCTYPE svg PUBLIC "-//W3C//DTD SVG 20010904//EN"
 "http://www.w3.org/TR/2001/REC-SVG-20010904/DTD/svg10.dtd">
<svg version="1.0" xmlns="http://www.w3.org/2000/svg"
 width="724.000000pt" height="724.000000pt" viewBox="0 0 724.000000 724.000000"
 preserveAspectRatio="xMidYMid meet">
<metadata>
Created by potrace 1.11, written by Peter Selinger 2001-2013
</metadata>
<g transform="translate(0.000000,724.000000) scale(0.100000,-0.100000)"
fill="#000000" stroke="none">
<path d="M3436 6123 c-3 -3 -98 -7 -213 -8 -288 -5 -375 -15 -568 -65 -210
-55 -438 -188 -607 -353 -77 -76 -152 -162 -188 -217 -8 -13 -25 -35 -37 -50
-13 -15 -23 -32 -23 -37 0 -5 -8 -18 -18 -29 -35 -38 -201 -384 -185 -384 3 0
1 -6 -5 -12 -21 -26 -109 -336 -128 -448 -2 -14 -7 -41 -10 -60 -3 -19 -8 -51
-10 -70 -2 -19 -6 -44 -9 -56 -2 -12 -7 -70 -10 -130 l-6 -109 22 35 c52 85
233 260 268 260 6 0 11 5 11 11 0 5 5 7 10 4 6 -3 10 -2 10 3 0 21 258 119
360 137 166 29 248 33 600 28 815 -13 2419 -5 2635 12 40 3 133 14 170 20 50
8 91 16 107 21 9 3 25 6 35 8 23 5 111 32 188 58 109 37 313 140 419 210 49
33 215 160 246 188 91 83 110 102 175 171 39 41 101 112 138 159 37 47 72 91
78 98 90 108 301 483 324 574 l6 23 -233 0 c-128 0 -240 3 -249 7 -8 3 -21 3
-28 -1 -7 -5 -29 -5 -50 -1 -21 4 -47 3 -59 -1 -12 -5 -24 -4 -26 0 -6 8
-3132 12 -3140 4z"/>
<path d="M2157 3894 c-1 -1 -38 -4 -82 -8 -44 -3 -102 -8 -130 -11 -78 -8
-309 -56 -322 -67 -7 -6 -13 -8 -13 -5 0 6 -59 -12 -154 -47 -95 -36 -286
-127 -286 -138 0 -4 -5 -8 -11 -8 -6 0 -31 -13 -56 -30 -24 -16 -48 -30 -54
-30 -5 0 -9 -4 -9 -8 0 -5 -10 -14 -22 -20 -36 -17 -156 -116 -243 -201 -150
-146 -279 -313 -389 -504 -49 -86 -136 -260 -136 -274 0 -2 -9 -23 -19 -47
-26 -56 -112 -306 -105 -306 2 0 0 -8 -5 -18 -6 -11 -12 -30 -15 -43 -3 -13
-10 -44 -17 -69 -13 -54 -18 -75 -24 -115 -3 -16 -12 -64 -20 -105 -7 -41 -16
-102 -20 -135 -4 -33 -9 -71 -12 -85 -2 -14 -7 -130 -9 -258 -3 -169 -1 -233
7 -230 6 2 23 26 38 53 24 46 88 148 122 197 57 81 149 206 164 222 6 6 32 38
60 71 113 136 322 323 459 409 163 103 358 180 491 192 33 3 339 7 680 9 341
2 636 6 655 8 322 50 659 222 980 502 60 53 293 289 335 339 22 27 50 61 63
74 26 30 38 45 136 174 40 53 88 120 107 150 18 29 36 55 40 58 3 3 19 27 35
53 16 27 39 65 51 85 47 76 88 156 83 162 -4 4 -2348 8 -2353 4z"/>
</g>
</svg>
